<svg width="112" height="20" viewBox="0 0 112 20" fill="none" xmlns="http://www.w3.org/2000/svg">
<path d="M107.043 8.92835C107.517 8.92835 107.903 9.31341 107.903 9.78808C107.903 10.2627 107.518 10.6478 107.043 10.6478V14.1998C109.475 14.1998 111.455 12.2211 111.455 9.78808C111.455 8.80141 111.129 7.88834 110.579 7.15234C109.774 8.22968 108.489 8.92835 107.043 8.92835Z" fill="#E95052"/>
<path d="M110.579 7.15098C111.13 6.41498 111.455 5.50299 111.455 4.51525C111.455 2.08325 109.476 0.103516 107.043 0.103516V3.65552C107.517 3.65552 107.903 4.04059 107.903 4.51525C107.903 4.98992 107.518 5.37499 107.043 5.37499C108.489 5.37499 109.774 6.07365 110.579 7.15098Z" fill="#55B68C"/>
<path d="M110.579 7.151C109.774 6.07366 108.488 5.375 107.043 5.375H104.683V8.927H107.043C108.488 8.927 109.774 8.22833 110.579 7.151Z" fill="url(#paint0_linear_2271_8626)"/>
<path d="M110.579 7.151C109.774 6.07366 108.488 5.375 107.043 5.375H104.683V8.927H107.043C108.488 8.927 109.774 8.22833 110.579 7.151Z" fill="#FDC800"/>
<path d="M0 19.7248V0H3.2544V19.7237L0 19.7248Z" fill="white"/>
<path d="M20.4246 11.5981V19.7261H17.1702V18.2136C15.7227 19.1725 13.4998 19.9981 11.2843 19.9981C7.19367 19.9981 5.71313 17.8317 5.71313 15.6568C5.71313 13.4819 7.33981 11.308 11.2843 11.308C13.4998 11.308 15.7227 12.1421 17.1702 13.1011V11.5992C17.1702 8.84721 16.7563 7.5896 13.3718 7.5896C9.98727 7.5896 7.3558 9.27174 7.3558 9.27174L5.87101 7.07974C5.87101 7.07974 9.21287 4.92188 13.1403 4.92188C18.831 4.92188 20.4246 7.5736 20.4246 11.5981ZM17.1702 15.3731C15.9115 14.3917 14.0577 13.4797 12.0971 13.4797C9.83367 13.4797 8.9686 14.492 8.9686 15.6568C8.9686 16.8216 10.3254 17.8307 12.0971 17.8307C14.0577 17.8307 15.9115 16.9389 17.1702 15.9576V15.3731Z" fill="white"/>
<path d="M45.4729 5.20312L41.5039 19.7247H36.0009L33.5007 10.5791L31.0004 19.7247H25.4975L21.5273 5.20312H25.9391L28.2463 13.6501L30.5503 5.20312H36.4372L38.7497 13.6405L41.0633 5.20312H45.4729Z" fill="white"/>
<path d="M60.8832 11.5981V19.7261H56.6016V18.7981C55.2298 19.4829 53.4869 19.9981 51.7429 19.9981C47.6533 19.9981 46.1738 17.8317 46.1738 15.6568C46.1738 13.2984 48.1098 11.308 51.745 11.3069C53.489 11.3069 55.233 11.8264 56.6037 12.5144V11.5981C56.6037 9.23441 56.4938 8.61574 53.8325 8.61574C50.8096 8.61574 48.3925 10.1229 48.369 10.1379L46.3317 7.07974C46.3317 7.07974 49.6736 4.92188 53.601 4.92188C59.2906 4.92294 60.8832 7.5736 60.8832 11.5981ZM56.6026 15.6653C55.744 15.132 54.416 14.508 52.9066 14.508C51.4997 14.508 50.4544 14.7075 50.4544 15.6568C50.4544 16.2851 51.3813 16.8035 52.9066 16.8035C54.097 16.8035 55.4282 16.3875 56.6026 15.6653Z" fill="white"/>
<path d="M63.7461 19.7259V0H68.0277V19.7248H63.7461V19.7259Z" fill="white"/>
<path d="M71.0964 19.7259V0H75.378V19.7248H71.0964V19.7259Z" fill="white"/>
<path d="M92.7594 12.4653C92.7594 12.7096 92.7424 12.9645 92.7178 13.2216H81.3056C81.6064 14.7373 82.7765 16.6392 85.1872 16.6477C87.4272 16.6477 89.2021 14.7416 89.2149 14.7224L92.1941 16.5411C92.1941 16.5411 89.9125 19.9992 84.9525 19.9992C79.1114 19.9992 77.1477 15.6141 77.1477 12.4664C77.1477 9.31973 79.1114 4.93359 84.9525 4.93359C90.7957 4.93253 92.7594 9.31866 92.7594 12.4653ZM88.3754 10.076C88.3754 10.076 87.633 8.13679 84.9589 8.13679C82.2848 8.13679 81.8325 10.076 81.8325 10.076H88.3754Z" fill="white"/>
<path d="M104.015 18.3721C104.015 18.3721 101.774 19.9988 99.9873 19.9988C95.4998 19.9988 95.4998 16.1812 95.4998 13.1156V8.75822H93.5798V5.20408H95.4998V1.35342L99.7814 0.00195312V5.20408H103.179V8.75822H99.7814V13.1166C99.7814 14.5118 99.7814 16.3827 100.909 16.3827C101.891 16.3817 103.122 15.7332 103.122 15.7332L104.015 18.3721Z" fill="white"/>
<defs>
<linearGradient id="paint0_linear_2271_8626" x1="104.683" y1="7.15101" x2="111.455" y2="7.15101" gradientUnits="userSpaceOnUse">
<stop stop-color="white"/>
<stop offset="1" stop-color="#1D1D1B"/>
</linearGradient>
</defs>
</svg>
